<svg width="712" height="91" viewBox="0 0 712 91" fill="none" xmlns="http://www.w3.org/2000/svg">
<path d="M80.5624 88.0629C76.2658 88.0629 72.0139 86.9152 67.8067 84.6198C63.5996 82.2361 60.2428 77.6454 57.7364 70.8476L54.3797 62.2399H16.7838L6.04218 87.4007H0L37.5958 0H41.6239L71.1635 70.8476C73.4013 75.968 75.5049 79.4993 77.4742 81.4416C79.4435 83.2955 82.2632 84.3991 85.9333 84.7522V87.4007C84.322 87.8421 82.5318 88.0629 80.5624 88.0629ZM51.6942 56.9429L35.5817 18.5395L18.7979 56.9429H51.6942Z" fill="white"/>
<path d="M88.2295 40.3897C86.1707 35.4459 84.1119 32.0028 82.0531 30.0606C80.0838 28.03 77.4431 26.9265 74.1311 26.7499V24.1014C74.5787 24.1014 75.25 24.0573 76.1451 23.969C77.0403 23.8807 77.9354 23.8366 78.8306 23.8366C83.6643 23.8366 87.9162 25.0725 91.5863 27.5445C95.3459 29.9281 98.4789 34.2099 100.985 40.3897L112.398 68.1991L123.811 39.7276C121.663 35.0486 119.604 31.7821 117.635 29.9281C115.755 27.9859 113.338 26.9265 110.384 26.7499V24.1014C110.832 24.1014 111.503 24.0573 112.398 23.969C113.293 23.8807 114.189 23.8366 115.084 23.8366C119.917 23.8366 124.169 25.0725 127.839 27.5445C131.599 29.9281 134.732 34.2099 137.238 40.3897L148.651 68.1991L166.107 25.1608H172.82L146.637 88.725H143.952L127.168 47.6731L110.384 88.725H107.699L88.2295 40.3897Z" fill="white"/>
<path d="M200.08 88.725C197.216 88.725 194.307 88.1511 191.353 87.0034C188.399 85.7675 185.848 83.7811 183.699 81.0443C181.64 78.3075 180.611 74.6879 180.611 70.1854C180.611 63.4759 183.744 58.7086 190.01 55.8835C196.365 53.0584 204.645 51.6459 214.85 51.6459H218.878C218.878 42.9941 217.67 37.0791 215.253 33.9009C212.836 30.7227 209.345 29.1336 204.78 29.1336C200.752 29.1336 197.529 29.9723 195.112 31.6497C192.695 33.327 190.995 36.2404 190.01 40.3897H183.968C183.968 37.3881 184.147 35.0486 184.505 33.3712C184.863 31.6055 185.803 29.9723 187.324 28.4715C188.936 26.8823 191.576 25.7347 195.246 25.0284C199.006 24.2338 203.079 23.8366 207.465 23.8366C214.716 23.8366 220.445 25.7788 224.652 29.6633C228.859 33.4595 230.962 40.787 230.962 51.6459V87.4007H224.249L219.549 81.4416H218.878C217.267 83.4721 214.895 85.1936 211.762 86.6062C208.629 88.0187 204.735 88.725 200.08 88.725ZM206.122 82.7658C209.076 82.7658 211.538 82.0596 213.507 80.647C215.477 79.2345 217.267 77.2923 218.878 74.8203V56.9429H214.85C208.226 56.9429 202.989 58.1789 199.14 60.6508C195.291 63.0345 193.367 66.2127 193.367 70.1854C193.367 74.2465 194.575 77.3805 196.992 79.5876C199.498 81.7064 202.542 82.7658 206.122 82.7658Z" fill="white"/>
<path d="M250.76 41.0519C250.76 36.5494 250.133 33.2388 248.88 31.12C247.627 28.9129 245.121 27.8093 241.361 27.8093H240.018V25.1608H250.76C254.162 25.1608 256.713 25.6464 258.413 26.6175C260.204 27.5003 261.457 29.0012 262.173 31.12H262.844C264.456 29.0894 266.604 27.3679 269.289 25.9554C272.064 24.5428 275.287 23.8366 278.957 23.8366C282.537 23.8366 285.223 24.4987 287.013 25.8229C288.535 26.9706 290.101 28.957 291.713 31.7821L286.342 35.7548C285.357 34.4306 283.925 33.4595 282.045 32.8415C280.165 32.1352 278.017 31.7821 275.6 31.7821C272.915 31.7821 270.453 32.4001 268.215 33.636C265.977 34.7837 264.187 36.3728 262.844 38.4034V87.4007H250.76V41.0519Z" fill="white"/>
<path d="M322.685 88.725C314.897 88.725 308.9 85.6792 304.693 79.5876C300.575 73.4961 298.516 65.7271 298.516 56.2808C298.516 46.8344 300.665 39.0655 304.961 32.9739C309.348 26.8823 315.703 23.8366 324.028 23.8366C327.429 23.8366 330.428 24.1897 333.024 24.896C335.62 25.6022 338.216 26.5734 340.812 27.8093V15.891C340.812 11.3886 340.185 8.07795 338.932 5.95914C337.679 3.75205 335.172 2.6485 331.413 2.6485H328.727V0H340.812C344.124 0 346.585 0.441419 348.197 1.32425C349.897 2.11881 351.106 3.61962 351.822 5.82671C352.538 8.0338 352.896 11.3886 352.896 15.891V87.4007H346.182L341.483 81.4416H340.812C338.842 83.6487 336.515 85.4143 333.83 86.7386C331.234 88.0629 327.519 88.725 322.685 88.725ZM326.713 83.428C330.383 83.428 333.158 82.7658 335.038 81.4416C336.918 80.1173 338.842 78.131 340.812 75.4824V33.1063C338.126 31.8704 335.799 30.8992 333.83 30.193C331.86 29.4867 329.936 29.1336 328.056 29.1336C322.327 29.1336 318.075 31.6055 315.3 36.5494C312.615 41.4933 311.272 48.0704 311.272 56.2808C311.272 64.4029 312.57 70.98 315.166 76.0121C317.762 80.956 321.611 83.428 326.713 83.428Z" fill="white"/>
<path d="M393.367 88.725C383.073 88.725 376.136 86.9593 372.555 83.428C371.033 81.9271 370.094 80.2498 369.736 78.3958C369.377 76.4536 369.198 73.4961 369.198 69.5233H371.884C372.689 73.9375 374.614 77.3805 377.657 79.8525C380.79 82.2361 385.132 83.428 390.682 83.428C395.605 83.428 399.275 82.5893 401.692 80.9119C404.198 79.2345 405.452 76.9833 405.452 74.1582C405.452 71.598 404.467 69.3909 402.498 67.5369C400.618 65.683 397.574 63.9173 393.367 62.2399L385.311 58.9293C379.94 56.8105 375.912 54.3385 373.227 51.5135C370.541 48.6884 369.198 45.2012 369.198 41.0519C369.198 35.6666 371.257 31.4731 375.375 28.4715C379.492 25.3815 384.819 23.8366 391.353 23.8366C401.2 23.8366 407.913 25.6022 411.494 29.1336C413.015 30.6344 413.955 32.3118 414.313 34.1657C414.671 36.0197 414.85 38.9772 414.85 43.0382H412.165C411.449 38.6241 409.569 35.2251 406.526 32.8415C403.482 30.3695 399.32 29.1336 394.039 29.1336C389.831 29.1336 386.519 30.0164 384.102 31.7821C381.775 33.4595 380.611 35.6666 380.611 38.4034C380.611 42.9941 384.192 46.7461 391.353 49.6595L399.409 52.9701C405.496 55.4421 409.927 58.0906 412.702 60.9157C415.477 63.6524 416.865 67.1838 416.865 71.5097C416.865 76.895 414.671 81.1326 410.285 84.2225C405.899 87.2242 400.26 88.725 393.367 88.725Z" fill="white"/>
<path d="M439.832 82.1274C444.335 77.8179 447.776 74.5646 450.155 72.3676C458.567 64.3401 464.727 58.2139 468.635 53.9889C472.544 49.7639 475.602 45.4121 477.811 40.9336C480.105 36.4551 481.252 31.5964 481.252 26.3574C481.252 20.2734 479.638 15.5836 476.409 12.2881C473.266 8.99265 469.357 7.3449 464.684 7.3449C459.501 7.3449 454.998 9.2039 451.175 12.9219C447.436 16.6399 444.93 21.9634 443.655 28.8924H441.107C441.107 24.6674 441.276 21.3296 441.616 18.8791C441.956 16.3441 442.806 14.1894 444.165 12.4149C446.544 9.5419 449.943 7.13365 454.361 5.19015C458.864 3.24665 463.58 2.2749 468.508 2.2749C475.22 2.2749 481.125 4.0494 486.223 7.5984C491.406 11.0629 493.997 17.3159 493.997 26.3574C493.997 31.6809 492.723 36.6664 490.174 41.3139C487.71 45.9614 484.481 50.3131 480.488 54.3691C476.579 58.3406 471.014 63.4951 463.792 69.8326C456.315 76.5081 451.302 81.0289 448.753 83.3949H477.429C482.612 83.3949 486.563 82.2964 489.282 80.0994C492 77.9024 493.36 74.5646 493.36 70.0861H495.909V78.3249C495.909 85.0849 492.298 88.4649 485.076 88.4649H439.832V82.1274Z" fill="#D7D700"/>
<path d="M539.403 90.9999C519.012 90.9999 508.816 76.2124 508.816 46.6374C508.816 17.0624 519.012 2.2749 539.403 2.2749C559.795 2.2749 569.991 17.0624 569.991 46.6374C569.991 76.2124 559.795 90.9999 539.403 90.9999ZM539.403 85.9299C543.991 85.9299 547.56 84.5356 550.109 81.7471C552.743 78.9586 554.569 74.7336 555.589 69.0721C556.694 63.3261 557.246 55.8479 557.246 46.6374C557.246 37.4269 556.694 29.9909 555.589 24.3294C554.569 18.5834 552.743 14.3161 550.109 11.5276C547.56 8.73915 543.991 7.3449 539.403 7.3449C534.815 7.3449 531.204 8.73915 528.57 11.5276C526.021 14.3161 524.195 18.5834 523.09 24.3294C522.07 29.9909 521.561 37.4269 521.561 46.6374C521.561 55.8479 522.07 63.3261 523.09 69.0721C524.195 74.7336 526.021 78.9586 528.57 81.7471C531.204 84.5356 534.815 85.9299 539.403 85.9299Z" fill="#D7D700"/>
<path d="M581.841 82.1274C586.344 77.8179 589.785 74.5646 592.164 72.3676C600.576 64.3401 606.736 58.2139 610.644 53.9889C614.553 49.7639 617.611 45.4121 619.82 40.9336C622.115 36.4551 623.262 31.5964 623.262 26.3574C623.262 20.2734 621.647 15.5836 618.419 12.2881C615.275 8.99265 611.366 7.3449 606.693 7.3449C601.511 7.3449 597.007 9.2039 593.184 12.9219C589.446 16.6399 586.939 21.9634 585.665 28.8924H583.116C583.116 24.6674 583.286 21.3296 583.625 18.8791C583.965 16.3441 584.815 14.1894 586.174 12.4149C588.553 9.5419 591.952 7.13365 596.37 5.19015C600.873 3.24665 605.589 2.2749 610.517 2.2749C617.229 2.2749 623.134 4.0494 628.232 7.5984C633.415 11.0629 636.006 17.3159 636.006 26.3574C636.006 31.6809 634.732 36.6664 632.183 41.3139C629.719 45.9614 626.49 50.3131 622.497 54.3691C618.589 58.3406 613.023 63.4951 605.801 69.8326C598.324 76.5081 593.311 81.0289 590.763 83.3949H619.438C624.621 83.3949 628.572 82.2964 631.291 80.0994C634.01 77.9024 635.369 74.5646 635.369 70.0861H637.918V78.3249C637.918 85.0849 634.307 88.4649 627.085 88.4649H581.841V82.1274Z" fill="#D7D700"/>
<path d="M681.412 90.9999C661.021 90.9999 650.825 76.2124 650.825 46.6374C650.825 17.0624 661.021 2.2749 681.412 2.2749C701.804 2.2749 712 17.0624 712 46.6374C712 76.2124 701.804 90.9999 681.412 90.9999ZM681.412 85.9299C686 85.9299 689.569 84.5356 692.118 81.7471C694.752 78.9586 696.579 74.7336 697.598 69.0721C698.703 63.3261 699.255 55.8479 699.255 46.6374C699.255 37.4269 698.703 29.9909 697.598 24.3294C696.579 18.5834 694.752 14.3161 692.118 11.5276C689.569 8.73915 686 7.3449 681.412 7.3449C676.824 7.3449 673.213 8.73915 670.579 11.5276C668.03 14.3161 666.204 18.5834 665.099 24.3294C664.08 29.9909 663.57 37.4269 663.57 46.6374C663.57 55.8479 664.08 63.3261 665.099 69.0721C666.204 74.7336 668.03 78.9586 670.579 81.7471C673.213 84.5356 676.824 85.9299 681.412 85.9299Z" fill="#D7D700"/>
</svg>
