<svg width="286" height="48" viewBox="0 0 286 48" fill="none" xmlns="http://www.w3.org/2000/svg">
<path d="M4.94215 7.63636C4.94215 5.78182 4.68589 4.41818 4.17337 3.54545C3.66085 2.63636 2.63581 2.18182 1.09826 2.18182H0V1.09091H4.94215C6.29667 1.09091 7.3034 1.27273 7.96236 1.63636C8.65792 1.96364 9.15213 2.58182 9.445 3.49091C9.73787 4.4 9.88431 5.78182 9.88431 7.63636V34.9091H29.3783V37.0909H4.94215V7.63636Z" fill="white"/>
<path d="M43.5428 37.6364C41.0535 37.6364 38.8936 37.0546 37.0631 35.8909C35.2327 34.6909 33.8416 33.0727 32.8898 31.0364C31.9379 29 31.462 26.7455 31.462 24.2727C31.462 21.8 31.9379 19.5455 32.8898 17.5091C33.8416 15.4727 35.2327 13.8727 37.0631 12.7091C38.8936 11.5091 41.0535 10.9091 43.5428 10.9091C46.0322 10.9091 48.1921 11.5091 50.0226 12.7091C51.853 13.8727 53.2441 15.4727 54.1959 17.5091C55.1478 19.5455 55.6237 21.8 55.6237 24.2727C55.6237 26.7455 55.1478 29 54.1959 31.0364C53.2441 33.0727 51.853 34.6909 50.0226 35.8909C48.1921 37.0546 46.0322 37.6364 43.5428 37.6364ZM43.5428 35.4545C44.8974 35.4545 46.0871 34.9636 47.1122 33.9818C48.1738 33 48.9792 31.6545 49.5283 29.9455C50.1141 28.2364 50.4069 26.3455 50.4069 24.2727C50.4069 22.2 50.1141 20.3091 49.5283 18.6C48.9792 16.8909 48.1738 15.5455 47.1122 14.5636C46.0871 13.5818 44.8974 13.0909 43.5428 13.0909C42.1883 13.0909 40.9802 13.5818 39.9186 14.5636C38.8936 15.5455 38.0882 16.8909 37.5024 18.6C36.9533 20.3091 36.6787 22.2 36.6787 24.2727C36.6787 26.3455 36.9533 28.2364 37.5024 29.9455C38.0882 31.6545 38.8936 33 39.9186 33.9818C40.9802 34.9636 42.1883 35.4545 43.5428 35.4545Z" fill="white"/>
<path d="M71.6183 48C67.9208 48 64.9739 47.3273 62.7773 45.9818C60.6174 44.6364 59.5375 42.4909 59.5375 39.5455C59.5375 37.8727 60.1049 36.4182 61.2398 35.1818C62.3746 33.9455 63.8207 33.0364 65.5779 32.4545C64.1135 31.6545 63.3814 30.5636 63.3814 29.1818C63.3814 28.4545 63.5461 27.8909 63.8756 27.4909C64.2051 27.0909 64.681 26.6545 65.3033 26.1818C64.1319 25.6 63.1434 24.6909 62.338 23.4545C61.5693 22.2182 61.1849 20.7636 61.1849 19.0909C61.1849 13.6364 64.6627 10.9091 71.6183 10.9091H81.7772V12.2727L78.2078 12.8182V13.0909C79.3427 13.6727 80.2579 14.4909 80.9535 15.5455C81.6857 16.5636 82.0517 17.7455 82.0517 19.0909C82.0517 24.5455 78.5739 27.2727 71.6183 27.2727C67.7744 27.2727 65.8525 27.9091 65.8525 29.1818C65.8525 30.4545 67.7744 31.0909 71.6183 31.0909C75.1693 31.0909 78.0614 31.8 80.2945 33.2182C82.5643 34.6 83.6991 36.7091 83.6991 39.5455C83.6991 42.4909 82.6009 44.6364 80.4044 45.9818C78.2444 47.3273 75.3158 48 71.6183 48ZM71.6183 25.3636C73.2657 25.3636 74.5836 24.8727 75.572 23.8909C76.5971 22.8727 77.1096 21.2727 77.1096 19.0909C77.1096 17.0182 76.5971 15.4545 75.572 14.4C74.5836 13.3455 73.2657 12.8182 71.6183 12.8182C69.9709 12.8182 68.6347 13.3273 67.6097 14.3455C66.6212 15.3273 66.127 16.9091 66.127 19.0909C66.127 21.2727 66.6212 22.8727 67.6097 23.8909C68.6347 24.8727 69.9709 25.3636 71.6183 25.3636ZM71.6183 45.8182C73.8148 45.8182 75.5537 45.2909 76.835 44.2364C78.1163 43.2182 78.757 41.6545 78.757 39.5455C78.757 35.9091 76.5605 33.8182 72.1674 33.2727L69.1472 33C67.6463 33.5818 66.4931 34.4 65.6877 35.4545C64.8823 36.5091 64.4796 37.8727 64.4796 39.5455C64.4796 41.6545 65.1203 43.2182 66.4016 44.2364C67.6829 45.2909 69.4218 45.8182 71.6183 45.8182Z" fill="white"/>
<path d="M92.0013 8.18182C91.1592 8.18182 90.4271 7.83636 89.8047 7.14545C89.219 6.45455 88.9261 5.63636 88.9261 4.69091C88.9261 3.92727 89.1458 3.32727 89.5851 2.89091C90.061 2.45454 90.6833 2.23636 91.4521 2.23636C92.2941 2.23636 93.008 2.58182 93.5937 3.27273C94.2161 3.96364 94.5272 4.78182 94.5272 5.72727C94.5272 6.49091 94.2893 7.09091 93.8134 7.52727C93.3741 7.96364 92.77 8.18182 92.0013 8.18182ZM89.9146 18C89.9146 16.1455 89.6583 14.7818 89.1458 13.9091C88.6333 13 87.6082 12.5455 86.0707 12.5455H84.9724V11.4545H89.9146C91.2691 11.4545 92.2758 11.6364 92.9348 12C93.6303 12.3273 94.1245 12.9455 94.4174 13.8545C94.7103 14.7636 94.8567 16.1455 94.8567 18V37.0909H89.9146V18Z" fill="white"/>
<path d="M103.428 18C103.428 16.1455 103.172 14.7818 102.659 13.9091C102.147 13 101.122 12.5455 99.5844 12.5455H98.4861V11.4545H103.428C104.783 11.4545 105.808 11.6364 106.503 12C107.236 12.3636 107.766 12.9091 108.096 13.6364H108.37C109.139 12.8727 110.128 12.2364 111.336 11.7273C112.58 11.1818 113.972 10.9091 115.509 10.9091C118.255 10.9091 120.488 11.6364 122.208 13.0909C123.966 14.5455 124.844 17.0909 124.844 20.7273V37.0909H119.902V20.7273C119.902 18.1818 119.316 16.3273 118.145 15.1636C117.01 13.9636 115.582 13.3636 113.862 13.3636C111.921 13.3636 110.091 14.3273 108.37 16.2545V37.0909H103.428V18Z" fill="white"/>
<path d="M147.96 38.1818C144.555 38.1818 141.553 37.3636 138.954 35.7273C136.391 34.0909 134.414 31.8727 133.023 29.0727C131.632 26.2364 130.937 23.0909 130.937 19.6364C130.937 16.0727 131.687 12.7818 133.188 9.76363C134.726 6.74545 136.794 4.36363 139.393 2.61818C142.029 0.872727 144.884 0 147.96 0C150.888 0 153.451 0.418182 155.647 1.25455C157.88 2.05454 159.528 3.09091 160.589 4.36364C161.212 5.12727 161.596 6.14545 161.743 7.41818C161.889 8.65454 161.962 10.3636 161.962 12.5455H160.864C160.168 9.01818 158.887 6.41818 157.02 4.74545C155.153 3.03636 152.682 2.18182 149.607 2.18182C145.653 2.18182 142.468 3.56364 140.052 6.32727C137.636 9.09091 136.428 13.5273 136.428 19.6364C136.428 22.5091 136.885 25.1818 137.801 27.6545C138.752 30.1273 140.217 32.1455 142.194 33.7091C144.171 35.2364 146.642 36 149.607 36C152.279 36 154.604 35.3636 156.581 34.0909C158.594 32.8182 160.388 30.9091 161.962 28.3636L163.061 29.1818C161.377 32.4545 159.29 34.7818 156.8 36.1636C154.348 37.5091 151.401 38.1818 147.96 38.1818Z" fill="white"/>
<path d="M175.144 37.6364C173.972 37.6364 172.782 37.4 171.574 36.9273C170.366 36.4182 169.323 35.6 168.444 34.4727C167.602 33.3455 167.181 31.8545 167.181 30C167.181 27.2364 168.462 25.2727 171.025 24.1091C173.624 22.9455 177.011 22.3636 181.184 22.3636H182.831C182.831 18.8 182.337 16.3636 181.349 15.0545C180.36 13.7455 178.932 13.0909 177.065 13.0909C175.418 13.0909 174.1 13.4364 173.112 14.1273C172.123 14.8182 171.428 16.0182 171.025 17.7273H168.554C168.554 16.4909 168.627 15.5273 168.774 14.8364C168.92 14.1091 169.304 13.4364 169.927 12.8182C170.586 12.1636 171.666 11.6909 173.167 11.4C174.704 11.0727 176.37 10.9091 178.164 10.9091C181.129 10.9091 183.472 11.7091 185.193 13.3091C186.913 14.8727 187.773 17.8909 187.773 22.3636V37.0909H185.028L183.106 34.6364H182.831C182.172 35.4727 181.202 36.1818 179.921 36.7636C178.64 37.3455 177.047 37.6364 175.144 37.6364ZM177.615 35.1818C178.823 35.1818 179.829 34.8909 180.635 34.3091C181.44 33.7273 182.172 32.9273 182.831 31.9091V24.5455H181.184C178.475 24.5455 176.333 25.0545 174.759 26.0727C173.185 27.0545 172.398 28.3636 172.398 30C172.398 31.6727 172.892 32.9636 173.881 33.8727C174.906 34.7455 176.15 35.1818 177.615 35.1818Z" fill="white"/>
<path d="M204.052 37.6364C199.842 37.6364 197.005 36.9091 195.541 35.4545C194.918 34.8364 194.534 34.1455 194.387 33.3818C194.241 32.5818 194.168 31.3636 194.168 29.7273H195.266C195.596 31.5455 196.383 32.9636 197.627 33.9818C198.909 34.9636 200.684 35.4545 202.954 35.4545C204.967 35.4545 206.468 35.1091 207.457 34.4182C208.482 33.7273 208.994 32.8 208.994 31.6364C208.994 30.5818 208.592 29.6727 207.786 28.9091C207.017 28.1455 205.773 27.4182 204.052 26.7273L200.757 25.3636C198.561 24.4909 196.913 23.4727 195.815 22.3091C194.717 21.1455 194.168 19.7091 194.168 18C194.168 15.7818 195.01 14.0545 196.694 12.8182C198.378 11.5455 200.556 10.9091 203.228 10.9091C207.255 10.9091 210.001 11.6364 211.465 13.0909C212.088 13.7091 212.472 14.4 212.618 15.1636C212.765 15.9273 212.838 17.1455 212.838 18.8182H211.74C211.447 17 210.678 15.6 209.434 14.6182C208.189 13.6 206.487 13.0909 204.327 13.0909C202.606 13.0909 201.252 13.4545 200.263 14.1818C199.311 14.8727 198.835 15.7818 198.835 16.9091C198.835 18.8 200.3 20.3455 203.228 21.5455L206.523 22.9091C209.013 23.9273 210.825 25.0182 211.96 26.1818C213.094 27.3091 213.662 28.7636 213.662 30.5455C213.662 32.7636 212.765 34.5091 210.971 35.7818C209.177 37.0182 206.871 37.6364 204.052 37.6364Z" fill="white"/>
<path d="M222.848 8.18182C222.006 8.18182 221.274 7.83636 220.652 7.14545C220.066 6.45455 219.773 5.63636 219.773 4.69091C219.773 3.92727 219.993 3.32727 220.432 2.89091C220.908 2.45454 221.53 2.23636 222.299 2.23636C223.141 2.23636 223.855 2.58182 224.441 3.27273C225.063 3.96364 225.374 4.78182 225.374 5.72727C225.374 6.49091 225.136 7.09091 224.66 7.52727C224.221 7.96364 223.617 8.18182 222.848 8.18182ZM220.761 18C220.761 16.1455 220.505 14.7818 219.993 13.9091C219.48 13 218.455 12.5455 216.918 12.5455H215.819V11.4545H220.761C222.116 11.4545 223.123 11.6364 223.782 12C224.477 12.3273 224.971 12.9455 225.264 13.8545C225.557 14.7636 225.704 16.1455 225.704 18V37.0909H220.761V18Z" fill="white"/>
<path d="M234.275 18C234.275 16.1455 234.019 14.7818 233.506 13.9091C232.994 13 231.969 12.5455 230.431 12.5455H229.333V11.4545H234.275C235.63 11.4545 236.655 11.6364 237.35 12C238.082 12.3636 238.613 12.9091 238.943 13.6364H239.217C239.986 12.8727 240.975 12.2364 242.183 11.7273C243.427 11.1818 244.818 10.9091 246.356 10.9091C249.102 10.9091 251.335 11.6364 253.055 13.0909C254.813 14.5455 255.691 17.0909 255.691 20.7273V37.0909H250.749V20.7273C250.749 18.1818 250.163 16.3273 248.992 15.1636C247.857 13.9636 246.429 13.3636 244.709 13.3636C242.768 13.3636 240.938 14.3273 239.217 16.2545V37.0909H234.275V18Z" fill="white"/>
<path d="M273.919 37.6364C271.43 37.6364 269.27 37.0546 267.439 35.8909C265.609 34.6909 264.218 33.0727 263.266 31.0364C262.314 29 261.838 26.7455 261.838 24.2727C261.838 21.8 262.314 19.5455 263.266 17.5091C264.218 15.4727 265.609 13.8727 267.439 12.7091C269.27 11.5091 271.43 10.9091 273.919 10.9091C276.409 10.9091 278.568 11.5091 280.399 12.7091C282.229 13.8727 283.62 15.4727 284.572 17.5091C285.524 19.5455 286 21.8 286 24.2727C286 26.7455 285.524 29 284.572 31.0364C283.62 33.0727 282.229 34.6909 280.399 35.8909C278.568 37.0546 276.409 37.6364 273.919 37.6364ZM273.919 35.4545C275.274 35.4545 276.463 34.9636 277.489 33.9818C278.55 33 279.356 31.6545 279.905 29.9455C280.49 28.2364 280.783 26.3455 280.783 24.2727C280.783 22.2 280.49 20.3091 279.905 18.6C279.356 16.8909 278.55 15.5455 277.489 14.5636C276.463 13.5818 275.274 13.0909 273.919 13.0909C272.565 13.0909 271.357 13.5818 270.295 14.5636C269.27 15.5455 268.465 16.8909 267.879 18.6C267.33 20.3091 267.055 22.2 267.055 24.2727C267.055 26.3455 267.33 28.2364 267.879 29.9455C268.465 31.6545 269.27 33 270.295 33.9818C271.357 34.9636 272.565 35.4545 273.919 35.4545Z" fill="white"/>
</svg>
