<svg width="46" height="60" viewBox="0 0 46 60" fill="none" xmlns="http://www.w3.org/2000/svg">
<path d="M22.4818 59.2857L22.4818 59.2857L1.57659 38.3817C1.43915 38.2443 1.36189 38.0572 1.36226 37.8635L1.36226 37.8626C1.36226 37.6685 1.43961 37.4817 1.57723 37.3441L7.14704 31.7743C7.41434 31.507 7.91679 31.507 8.18408 31.7743L17.1466 40.7368L18.0002 41.5903L18.0002 40.3832L18.0002 1.23414C18.0002 0.829397 18.3289 0.500654 18.7337 0.500654L27.2663 0.500655C27.6711 0.500655 27.9998 0.829398 27.9998 1.23414L27.9998 40.3838L27.9998 41.5908L28.8533 40.7374L37.8171 31.7749L37.8171 31.7749C37.9547 31.6373 38.1415 31.5599 38.3356 31.5599C38.5303 31.5599 38.7165 31.6372 38.8542 31.7749L44.4234 37.3447L44.4234 37.3447C44.7098 37.6311 44.7098 38.0953 44.4234 38.3817L23.5188 59.2857L23.8722 59.6391L23.5188 59.2857C23.2324 59.5721 22.7682 59.5721 22.4818 59.2857Z" stroke="#424242"/>
</svg>
